<?xml version="1.0" encoding="UTF-8"?>
<!DOCTYPE svg PUBLIC "-//W3C//DTD SVG 1.1//EN" "http://www.w3.org/Graphics/SVG/1.1/DTD/svg11.dtd">
<svg xmlns="http://www.w3.org/2000/svg" version="1.1" width="500px" height="500px" style="shape-rendering:geometricPrecision; text-rendering:geometricPrecision; image-rendering:optimizeQuality; fill-rule:evenodd; clip-rule:evenodd" xmlns:xlink="http://www.w3.org/1999/xlink">
<g><path style="opacity:1" fill="#3bb6fe" d="M 412.5,434.5 C 430.965,403.073 427.965,373.906 403.5,347C 407.867,339.101 412.367,331.268 417,323.5C 418.539,319.26 417.206,316.593 413,315.5C 411.605,315.78 410.438,316.447 409.5,317.5C 404.634,325.203 399.968,333.036 395.5,341C 391.718,339.291 387.718,337.791 383.5,336.5C 383.667,287.166 383.5,237.832 383,188.5C 381.871,186.859 380.371,185.859 378.5,185.5C 378.5,169.833 378.5,154.167 378.5,138.5C 380.371,138.141 381.871,137.141 383,135.5C 383.667,123.167 383.667,110.833 383,98.5C 370.554,86.0541 358.054,73.5541 345.5,61C 262.167,60.3333 178.833,60.3333 95.5,61C 95,61.5 94.5,62 94,62.5C 93.3333,107.5 93.3333,152.5 94,197.5C 94.8159,198.823 95.9826,199.489 97.5,199.5C 97.5,215.5 97.5,231.5 97.5,247.5C 95.9826,247.511 94.8159,248.177 94,249.5C 93.3333,309.833 93.3333,370.167 94,430.5C 94.5,431 95,431.5 95.5,432C 166.169,432.167 236.836,432.667 307.5,433.5C 327.447,458.479 352.78,466.146 383.5,456.5C 342.941,483.523 298.108,496.857 249,496.5C 154.428,493.406 82.7615,451.74 34,371.5C -4.52231,298.908 -8.18898,224.575 23,148.5C 63.6829,64.2181 130.516,15.7181 223.5,3C 311.92,-3.65847 384.753,26.5082 442,93.5C 495.105,163.441 509.438,240.775 485,325.5C 470.781,368.649 446.614,404.983 412.5,434.5 Z"/></g>
<g><path style="opacity:1" fill="#1a2848" d="M 378.5,138.5 C 376.771,137.883 375.271,136.883 374,135.5C 373.5,125.506 373.334,115.506 373.5,105.5C 362.495,105.667 351.495,105.5 340.5,105C 340,104.5 339.5,104 339,103.5C 338.5,92.505 338.333,81.505 338.5,70.5C 259.833,70.5 181.167,70.5 102.5,70.5C 102.667,112.835 102.5,155.168 102,197.5C 100.67,198.582 99.1703,199.249 97.5,199.5C 95.9826,199.489 94.8159,198.823 94,197.5C 93.3333,152.5 93.3333,107.5 94,62.5C 94.5,62 95,61.5 95.5,61C 178.833,60.3333 262.167,60.3333 345.5,61C 358.054,73.5541 370.554,86.0541 383,98.5C 383.667,110.833 383.667,123.167 383,135.5C 381.871,137.141 380.371,138.141 378.5,138.5 Z"/></g>
<g><path style="opacity:1" fill="#fdfdfd" d="M 378.5,138.5 C 378.5,154.167 378.5,169.833 378.5,185.5C 376.596,185.738 375.262,186.738 374.5,188.5C 373.833,236.5 373.167,284.5 372.5,332.5C 343.948,328.365 321.448,338.032 305,361.5C 294.28,380.806 292.78,400.806 300.5,421.5C 235.002,422.499 169.335,422.832 103.5,422.5C 103.832,365.331 103.499,308.331 102.5,251.5C 102.033,248.703 100.367,247.369 97.5,247.5C 97.5,231.5 97.5,215.5 97.5,199.5C 99.1703,199.249 100.67,198.582 102,197.5C 102.5,155.168 102.667,112.835 102.5,70.5C 181.167,70.5 259.833,70.5 338.5,70.5C 338.333,81.505 338.5,92.505 339,103.5C 339.5,104 340,104.5 340.5,105C 351.495,105.5 362.495,105.667 373.5,105.5C 373.334,115.506 373.5,125.506 374,135.5C 375.271,136.883 376.771,137.883 378.5,138.5 Z"/></g>
<g><path style="opacity:1" fill="#fdfdfd" d="M 348.5,78.5 C 354.167,83.8333 359.833,89.1667 365.5,94.5C 360.025,95.4889 354.358,95.8222 348.5,95.5C 348.5,89.8333 348.5,84.1667 348.5,78.5 Z"/></g>
<g><path style="opacity:1" fill="#8990a0" d="M 348.5,78.5 C 348.5,84.1667 348.5,89.8333 348.5,95.5C 354.358,95.8222 360.025,95.4889 365.5,94.5C 366.043,94.56 366.376,94.8933 366.5,95.5C 360.202,96.4963 353.868,96.8297 347.5,96.5C 347.167,89.7383 347.5,83.7383 348.5,78.5 Z"/></g>
<g><path style="opacity:1" fill="#192646" d="M 136.5,124.5 C 206.167,124.333 275.834,124.5 345.5,125C 348.167,127.667 348.167,130.333 345.5,133C 275.833,133.667 206.167,133.667 136.5,133C 132.605,130.178 132.605,127.345 136.5,124.5 Z"/></g>
<g><path style="opacity:1" fill="#1e2a4a" d="M 136.5,167.5 C 205.834,167.333 275.167,167.5 344.5,168C 347.617,169.72 348.283,172.22 346.5,175.5C 345.624,176.251 344.624,176.751 343.5,177C 274.5,177.667 205.5,177.667 136.5,177C 132.581,173.84 132.581,170.673 136.5,167.5 Z"/></g>
<g><path style="opacity:1" fill="#1b2848" d="M 378.5,185.5 C 380.371,185.859 381.871,186.859 383,188.5C 383.5,237.832 383.667,287.166 383.5,336.5C 387.718,337.791 391.718,339.291 395.5,341C 399.968,333.036 404.634,325.203 409.5,317.5C 410.438,316.447 411.605,315.78 413,315.5C 417.206,316.593 418.539,319.26 417,323.5C 412.367,331.268 407.867,339.101 403.5,347C 427.965,373.906 430.965,403.073 412.5,434.5C 404.817,444.502 395.15,451.835 383.5,456.5C 352.78,466.146 327.447,458.479 307.5,433.5C 236.836,432.667 166.169,432.167 95.5,432C 95,431.5 94.5,431 94,430.5C 93.3333,370.167 93.3333,309.833 94,249.5C 94.8159,248.177 95.9826,247.511 97.5,247.5C 100.367,247.369 102.033,248.703 102.5,251.5C 102.5,308.833 102.5,366.167 102.5,423.5C 168.837,423.833 235.17,423.5 301.5,422.5C 301.376,421.893 301.043,421.56 300.5,421.5C 292.78,400.806 294.28,380.806 305,361.5C 321.448,338.032 343.948,328.365 372.5,332.5C 372.56,333.043 372.893,333.376 373.5,333.5C 374.5,285.171 374.833,236.838 374.5,188.5C 375.262,186.738 376.596,185.738 378.5,185.5 Z"/></g>
<g><path style="opacity:1" fill="#5a637a" d="M 374.5,188.5 C 374.833,236.838 374.5,285.171 373.5,333.5C 372.893,333.376 372.56,333.043 372.5,332.5C 373.167,284.5 373.833,236.5 374.5,188.5 Z"/></g>
<g><path style="opacity:1" fill="#1e2a4a" d="M 136.5,210.5 C 205.834,210.333 275.167,210.5 344.5,211C 347.966,213.661 348.299,216.661 345.5,220C 275.833,220.667 206.167,220.667 136.5,220C 133.888,216.836 133.888,213.669 136.5,210.5 Z"/></g>
<g><path style="opacity:1" fill="#192646" d="M 135.5,254.5 C 205.501,254.333 275.501,254.5 345.5,255C 348.167,257.667 348.167,260.333 345.5,263C 275.833,263.667 206.167,263.667 136.5,263C 132.853,260.558 132.519,257.724 135.5,254.5 Z"/></g>
<g><path style="opacity:1" fill="#1e2a4a" d="M 136.5,303.5 C 206.167,303.333 275.834,303.5 345.5,304C 348.418,307.472 348.085,310.472 344.5,313C 275.167,313.667 205.833,313.667 136.5,313C 133.888,309.836 133.888,306.669 136.5,303.5 Z"/></g>
<g><path style="opacity:1" fill="#fcfdfd" d="M 348.5,341.5 C 362.669,339.805 376.002,342.305 388.5,349C 389.022,349.561 389.355,350.228 389.5,351C 379.633,367.9 369.633,384.733 359.5,401.5C 353.375,395.876 347.375,390.042 341.5,384C 335.086,381.407 332.586,383.574 334,390.5C 342.47,397.969 350.637,405.802 358.5,414C 360.92,414.687 363.087,414.187 365,412.5C 375.601,393.573 386.601,374.906 398,356.5C 416.59,376.975 419.59,399.641 407,424.5C 389.982,447.951 367.482,455.451 339.5,447C 313.538,434.251 302.372,413.417 306,384.5C 312.335,362.332 326.502,347.998 348.5,341.5 Z"/></g>
<g><path style="opacity:1" fill="#192646" d="M 135.5,353.5 C 171.502,353.333 207.502,353.5 243.5,354C 246.167,356.667 246.167,359.333 243.5,362C 207.833,362.667 172.167,362.667 136.5,362C 132.874,359.603 132.54,356.769 135.5,353.5 Z"/></g>
<g><path style="opacity:1" fill="#9ba0ae" d="M 102.5,251.5 C 103.499,308.331 103.832,365.331 103.5,422.5C 169.335,422.832 235.002,422.499 300.5,421.5C 301.043,421.56 301.376,421.893 301.5,422.5C 235.17,423.5 168.837,423.833 102.5,423.5C 102.5,366.167 102.5,308.833 102.5,251.5 Z"/></g>
</svg>
